<svg xmlns="http://www.w3.org/2000/svg" viewBox="0 0 4780.63 1775.89"><defs><style>.cls-1{fill:#edeced;}.cls-2{fill:#1d54ad;}.cls-3{fill:#c62931;}.cls-4{fill:#f9d961;}.cls-5{fill:#52954f;}.cls-6{fill:#d34233;}.cls-7{fill:#d63f37;}.cls-8{fill:#58a752;}.cls-9{fill:#f9e34e;}.cls-10{fill:#d64037;}.cls-11{fill:#faf9f9;}.cls-12{fill:#c72c35;}.cls-13{fill:#c72c34;}.cls-14{fill:#f9d860;}</style></defs><g id="Capa_2" data-name="Capa 2"><g id="Capa_1-2" data-name="Capa 1"><path d="M4486.6,194.4c-160.1.3-289.7,129.9-289.7,289.7V805.9H4362V484.1a125,125,0,0,1,249.9,0V805.9h164.8V484.1C4776.3,324.3,4646.7,194.7,4486.6,194.4Z"/><path d="M1866.3,530.1a125,125,0,1,1-249.9.1V208.3H1451.6V529.9C1450.2,690,1578.7,821,1738.8,822.7s291.1-126.9,292.5-287V208.3H1866.5V530.2h-.2Z"/><path d="M2989.5,806V484.1a124.9,124.9,0,0,1,249.8,0V805.9h164.8V484.1c0-160.1-129.6-289.7-289.7-289.7a290.28,290.28,0,0,0-124.9,28.3V0H2824.7V806Z"/><path d="M370.6,609.6,147.9,186.1,0,259.2,261.8,756.1c31.6,60.1,106.1,83.1,166.2,51.5a124.94,124.94,0,0,0,54-56.2L715.5,258.6,567,185.5Z"/><path d="M1350,806.8H1185V498a134.31,134.31,0,0,0-17.4-67.3c0-.3-.3-.3-.3-.5a139.4,139.4,0,0,0-85.9-65.1c-75.1-20-152.1,24.9-172,100.3a90.19,90.19,0,0,0-2.6,11.7c-13.3,76.7,37.9,149.6,114.4,162.9a140.82,140.82,0,0,0,56-1.4l102.2,137.7a302.69,302.69,0,0,1-133.5,31,298.48,298.48,0,0,1-78.1-10.2C804.6,754,707.1,586.6,750.3,423.5s210.2-260.6,373.4-217.4a305.31,305.31,0,0,1,185.9,141.3c1.4,2.2,2.5,4.4,3.6,6.4A302.66,302.66,0,0,1,1350,500.1V806.8Z"/><path d="M4095.2,806.8H3930.1V498a134.31,134.31,0,0,0-17.4-67.3l-.3-.5a139.4,139.4,0,0,0-85.9-65.1c-75.1-19.7-152.1,25.2-172,100.3A92.16,92.16,0,0,0,3652,477c-13.1,76.9,38.5,149.9,115.4,163a142.47,142.47,0,0,0,55.2-1.5l102.2,137.7a302.69,302.69,0,0,1-133.5,31,298.48,298.48,0,0,1-78.1-10.2c-163.1-42.9-260.9-210-218-373.4,42.9-163.1,210-260.9,373.4-218a304.26,304.26,0,0,1,186.1,141.6c1.4,2.2,2.5,4.4,3.6,6.4a302.56,302.56,0,0,1,36.8,146.2Z"/><path d="M2723.9,865.3V499.6A303.21,303.21,0,0,0,2687,353.4c-1.1-2.2-2.5-4.4-3.6-6.4-85-145.7-272.3-195-418-110s-195,272.3-110,418a305.06,305.06,0,0,0,397.7,120.7L2451.3,638a140.81,140.81,0,1,1-62.9-274.5h0a147.42,147.42,0,0,1,31-3.6,141.68,141.68,0,0,1,121.9,69.8l.3.6a132.28,132.28,0,0,1,17.4,67.3V864.9h0a147.45,147.45,0,0,1-4.4,28.8c-19.6,75-96.4,119.9-171.4,100.3a140.6,140.6,0,0,1-100.3-100.3,147.45,147.45,0,0,1-4.4-28.8H2113.4a305.21,305.21,0,0,0,10,70.6c42.9,163.1,209.7,260.6,372.8,217.7a305.42,305.42,0,0,0,217.7-217.7,297.34,297.34,0,0,0,10-70.2Z"/><circle class="cls-1" cx="1513.09" cy="1528.48" r="245.72"/><path class="cls-2" d="M1267.79,1507.52c2.33-5.08,1.7-10.79,2.76-16.29,16.29-92.49,68.14-156.62,154.49-193a25,25,0,0,1,3-1.06V1757.9a165.59,165.59,0,0,1-26.67-11.64c-68.15-36.62-111.11-92.28-128.26-167.84a241.6,241.6,0,0,1-4.23-27.51c-.21-1.06.64-2.75-1.06-3.39Z"/><path class="cls-3" d="M1599.65,1758.11V1297.79c71.32,23.7,155.13,101.37,160.21,219.47C1764.94,1638.74,1684.09,1728.69,1599.65,1758.11Z"/><path class="cls-3" d="M4780.63,1509.64V1549c-1.48.63-.84,1.9-1.05,3a254.59,254.59,0,0,1-14.39,62.64h-461.6a24.9,24.9,0,0,1-1.05-2.32,245,245,0,0,1-13.34-106.88,232.1,232.1,0,0,1,14.39-62.23h461.6a240.93,240.93,0,0,1,12.69,48.47C4778.94,1497.58,4778.52,1503.93,4780.63,1509.64Z"/><path d="M4765.19,1443.18h-461.6a220.21,220.21,0,0,1,29-55.45c41.27-57.14,96.51-91.64,166.35-102.43,5.08-.85,10.37-.42,15.24-2.54h39.36c.22,1.06,1.06.85,1.91,1.06a242,242,0,0,1,149.21,67.51A234,234,0,0,1,4765.19,1443.18Z"/><path class="cls-4" d="M4765.19,1614.61C4718,1742,4576.19,1807,4448.78,1759.8a246.54,246.54,0,0,1-145.19-145.19Z"/><circle class="cls-1" cx="3930.21" cy="1528.48" r="245.72"/><path class="cls-5" d="M3684.49,1509c2.33-5.08,1.91-10.59,2.75-15.67a239.11,239.11,0,0,1,25.61-79.36,246.77,246.77,0,0,1,100.32-101.59,255.09,255.09,0,0,1,32.8-14.81c2.33-.85,3.39-.64,3.18,1.9v456.93c.21,3.18-.85,3.39-3.6,2.33A246.78,246.78,0,0,1,3697.61,1607a258.9,258.9,0,0,1-12.06-56.51c-.21-1.06.21-2.33-1.06-3V1509Z"/><path class="cls-6" d="M4011.9,1528.05V1302.44c0-5.92,0-5.92,5.51-3.81a242.79,242.79,0,0,1,121.9,100.74,240,240,0,0,1,34.92,100.53,245,245,0,0,1-92.06,221.17,251.19,251.19,0,0,1-66.46,37.46c-4.87,1.91-3.6-1.48-3.6-3.6v-181.8l-.21-45.08Z"/><path class="cls-7" d="M2047.51,1292.92a232.32,232.32,0,0,1,76.19-10.16c89.52,4,158.31,44.23,205.29,120.42,25.82,41.7,36.19,87.84,34.29,136.72-4.24,105-77.46,196.83-179.69,225.19a244.56,244.56,0,0,1-136.29-1.27V1598.74c3.59-.42,7.19-.63,10.79-1.27,39.58-5.71,66.67-45.71,57.57-84.66a70.82,70.82,0,0,0-68.57-54.81C2047.51,1403,2047.51,1348,2047.51,1292.92Z"/><path class="cls-8" d="M2047.51,1292.92V1458c-3.6.42-7.2.63-10.8,1.06-39.78,5.71-66.66,45.5-57.56,84.65a71.23,71.23,0,0,0,68.57,55v165.08a240.87,240.87,0,0,1-116-74.92,232.3,232.3,0,0,1-54.39-110.48c-14.18-73.44.84-140.53,46.14-200.21,31.74-41.48,73.22-69.63,123.17-85.08C2046.87,1292.92,2047.09,1292.92,2047.51,1292.92Z"/><path class="cls-9" d="M2047.72,1598.74a71.41,71.41,0,0,1-68.57-55c-8.89-39.15,18-78.94,57.56-84.65,3.6-.43,7.2-.85,10.8-1.06a70.82,70.82,0,0,1,68.57,54.81c8.89,39.16-18,79-57.57,84.66C2054.92,1598.11,2051.32,1598.32,2047.72,1598.74Zm-35.34-61c-5.29,1.06-13.13-3-15.45,1.9-2.12,4,2.54,10.37,5.5,15.45,0,.21.21.21.21.43,1.27,3,3,2.54,4.87.42s4.65-4.44,7-6.77a57.92,57.92,0,0,0,9.74,14.81c-8,7.83-8,7.83,2.12,12.49,1.05.42,2.11.85,3,1.27,9.31,3.39,9.31,3.39,9.52-6.35a37.61,37.61,0,0,0,14.6.42c1.7-.42,2.54-.21,3,1.91,1.06,7,1.27,7,7.83,4.65,3.17-1.05,5.92-2.54,8.89-3.81,4.23-1.69,4.87-3.81,1.06-6.77-1.49-1.27-4.45-2.75-1.7-5.71,3.39-3.6,5.72-7.83,8.68-13.12,2.33,2.75,4.44,5.08,6.35,7.4s3.39,2.33,4.87-.63a76,76,0,0,0,5.71-13.55c1.06-3.38-.21-4-3.17-4-12.91-.42-12.7-.42-12.7-12.91,0-3.81,1.48-4.44,4.87-4.44,13.75-.21,14.18-.85,8.25-13.55-4-8.89-4-8.89-11.43-2.54-.21.21-.63.21-1.27.43-.21-3.18-.21-6.14-2.54-8.68-2.33-2.33-5.5-2.75-9.31-2.75,7.2-8.89,7.2-8.89-3.18-13.55-.84-.42-1.69-.63-2.53-1.06-11.22-3.81-8.68-2.54-8.89,6.35v3.81c.21,3-.64,4.45-3.81,4.24-4.45-.22-9.1-.22-13.76-.22v-5.5c0-12.7-.21-12.91-12.28-7.41-9.73,4.45-9.73,4.45-2.75,12.07.22.21.43.63.64.84-9.53.64-11.43,2.54-12.07,12.07-1.48-1.27-3-2.54-4.44-4-2.33-3-4-2.76-5.93.63a63,63,0,0,0-5.5,13.55c-1.06,3.59-.42,5.5,3.81,5.29,4-.21,8,0,12.06,0Z"/><path class="cls-10" d="M2038.83,1493.13c4.45,0,9.1,0,13.76.21,3.17.22,4.23-1.27,3.81-4.23v-3.81c.21-8.89-2.33-10.16,8.89-6.35a13.32,13.32,0,0,1,2.54,1.06c10.37,4.44,10.37,4.44,3.17,13.55,3.6,0,6.77.21,9.31,2.75s2.54,5.5,2.54,8.67c.64-.21,1.06-.21,1.27-.42,7.41-6.35,7.41-6.35,11.43,2.54,5.93,12.91,5.5,13.55-8.25,13.55-3.39,0-4.66.84-4.87,4.44,0,12.49-.21,12.49,12.7,12.91,3.17,0,4.23.64,3.17,4a83.49,83.49,0,0,1-5.71,13.55c-1.48,2.75-3,2.75-4.87.63s-4-4.65-6.35-7.41c-3,5.3-5.29,9.74-8.68,13.13-2.75,2.75,0,4.44,1.7,5.71,3.81,3.17,3.17,5.08-1.06,6.77-3,1.27-5.93,2.75-8.89,3.81-6.77,2.33-6.77,2.33-7.83-4.65-.21-2.12-1.06-2.33-3-1.91a37.54,37.54,0,0,1-14.61-.42,77.94,77.94,0,0,1-14.6-7.2,52.89,52.89,0,0,1-9.74-14.81c-.63-3.81-1.48-7.62-2.32-11.43V1505.2c.63-9.53,2.54-11.43,12.06-12.07Zm9.53,17.57h-15.24c-2.33,0-3.18.63-3.18,3.17.21,8.05-.21,16.09.21,24.13a17.49,17.49,0,0,0,18.21,16.72,17.79,17.79,0,0,0,16.72-16.51,78.63,78.63,0,0,0,0-10c0-5.71,1.9-13.12-1.06-16.29-3.18-3.6-10.8-.64-15.66-1.27Z"/><path class="cls-8" d="M2012.38,1505.2v15.23c-4,0-8.05-.21-12.07,0-4.23.22-4.87-1.48-3.81-5.29a82.37,82.37,0,0,1,5.51-13.54c1.69-3.39,3.38-3.6,5.92-.64C2009.41,1502.44,2010.89,1503.93,2012.38,1505.2Z"/><path class="cls-8" d="M2038.83,1493.13h-14.39a2.74,2.74,0,0,0-.64-.84c-7-7.62-7-7.62,2.76-12.07,12.06-5.5,12.27-5.29,12.27,7.41Z"/><path class="cls-8" d="M2012.38,1537.79c.63,3.81,1.48,7.62,2.32,11.43-2.32,2.33-4.86,4.44-7,6.77s-3.6,2.54-4.87-.42a.74.74,0,0,0-.21-.43c-2.75-4.86-7.41-11.21-5.5-15.45C1999.25,1534.83,2007.09,1539.06,2012.38,1537.79Z"/><path class="cls-8" d="M2024.44,1564a77.94,77.94,0,0,0,14.6,7.2c-.21,9.73-.21,9.73-9.52,6.35-1.06-.43-2.12-.85-3-1.27C2016.4,1571.86,2016.4,1571.86,2024.44,1564Z"/><path class="cls-11" d="M2048.57,1510.7c4.65.42,12.48-2.54,15.66,1.06,2.75,3.17.84,10.79,1.06,16.29,0,3.39.21,6.56,0,10a17.64,17.64,0,0,1-18.42,16.51,17.45,17.45,0,0,1-16.5-16.72c-.22-8,0-16.09-.22-24.13,0-2.33.85-3.17,3.18-3.17C2038,1510.91,2042.64,1510.7,2048.57,1510.7Z"/><path class="cls-4" d="M1155.38,1510.06v36.41c-1.7,3.59-1.27,7.83-1.91,11.64a230.79,230.79,0,0,1-13.75,55.66H679.39c-.42-1.06-.84-2.12-1.27-3.18a244.8,244.8,0,0,1-12.06-115.13,216.66,216.66,0,0,1,13.33-52.7h460.33a246.72,246.72,0,0,1,11.85,42.33C1153.26,1493.56,1153.05,1502,1155.38,1510.06Z"/><path class="cls-3" d="M1139.72,1443H679.39a221.74,221.74,0,0,1,34.93-63.49c40.84-52.27,94-84,160-94,5.08-.84,10.37-.63,15.23-2.54h39.37c.42,1.27,1.48.85,2.54.85q89.84,8.57,153.44,72.59A232.36,232.36,0,0,1,1139.72,1443Z"/><path class="cls-3" d="M1139.72,1614a237.64,237.64,0,0,1-61.17,92.7,241.43,241.43,0,0,1-135.45,65.18,245.72,245.72,0,0,1-263.49-157c0-.22-.22-.64-.22-.85H796.86Q968.28,1613.67,1139.72,1614Z"/><path class="cls-3" d="M325,1775.89H285.38c-3.59-1.91-7.62-1.27-11.64-1.91,0-2.12-.42-4.23-.42-6.14V1567.63c0-4.87-1.27-6.14-6.14-6.14-66.66.21-133.54.21-200.21,0a56.41,56.41,0,0,1-6.14-.42,265.45,265.45,0,0,1,0-63.49c2.12-.21,4.24-.43,6.14-.43H267.18c4.87,0,6.14-1.27,6.14-6.13-.21-66.67-.21-133.55,0-200.22a56.22,56.22,0,0,1,.42-6.13,265.54,265.54,0,0,1,63.5,0c.21,2.11.42,4.23.42,6.13V1491c0,4.86,1.27,6.13,6.14,6.13,66.66-.21,133.54-.21,200.21,0a56.35,56.35,0,0,1,6.14.43c.63,4.23.21,8.46,1.9,12.48v38.52c-1.69,4-1.27,8.26-1.9,12.49-2.12.21-4.24.42-6.14.42H343.8c-4.87,0-6.14,1.27-6.14,6.14.21,66.67.21,133.55,0,200.21a56.24,56.24,0,0,1-.42,6.14C333.43,1774.83,329,1774.19,325,1775.89Z"/><path class="cls-1" d="M61.26,1497.58c1.9-11,3.17-22.23,6.77-32.81H194c.22,0,.43-.42,1.27-1.06-3.38-3.17-6.77-6.35-9.94-9.52l-74.92-74.71a28.2,28.2,0,0,1,6.77-8.25c1.27,1.27,2.54,2.32,3.81,3.59l87.19,87c1.06,1.06,1.91,2.75,3.6,2.75h29.42c-1.69-1.9-2.75-3-3.6-3.81l-89.1-89.1c-5.5-5.5-10.79-11-16.08-16.51,1.27-4,5.08-5.5,7.62-8.25a87.93,87.93,0,0,1,16.08-13.34c27.94,27.94,55.87,56.09,83.81,84,.21.21.85.21,1.27.21V1291.23c10.58-3.6,21.8-4.87,32.81-6.78-.22,2.12-.43,4.24-.43,6.14V1490.8c0,4.87-1.27,6.14-6.13,6.14-66.67-.21-133.55-.21-200.22,0A27.72,27.72,0,0,1,61.26,1497.58Z"/><path class="cls-1" d="M543.59,1465c3.59,10.59,4.86,21.8,6.77,32.81-2.12-.21-4.23-.42-6.14-.42H344c-4.87,0-6.14-1.27-6.14-6.14.21-66.67.21-133.55,0-200.22a56.22,56.22,0,0,0-.42-6.13,195.8,195.8,0,0,1,32.8,6.77v125.93c0,.21.43.42,1.06,1.27,3-3.18,5.93-6.35,8.89-9.32,25.18-25.18,50.16-50.37,75.34-75.55a28.24,28.24,0,0,1,8.26,6.77c-1.27,1.27-2.33,2.54-3.6,3.81q-43.49,43.49-87,87.2c-1.06,1-2.76,1.9-3,3.59v28.58l1.27.63c1.06-1.27,2.33-2.75,3.39-4q50.47-50.16,100.74-100.53c1.27-1.27,2.75-2.54,4.23-3.81a115.21,115.21,0,0,1,21.59,23.7l-84,84c-.21.21-.21.84-.21,1.27Z"/><path class="cls-1" d="M501.26,1679.16a28.24,28.24,0,0,1-6.77,8.26c-1.27-1.06-2.33-2.33-3.6-3.18q-43.5-43.48-87.2-87c-1.27-1.27-2.11-3.17-4-3.17-9.52-.22-19.05,0-29.42,0,1.7,1.9,2.75,3,3.6,3.8l99.26,99.26c2.12,2.12,4,4.24,5.93,6.35a115.27,115.27,0,0,1-23.71,21.59c-27.93-27.94-55.87-56.08-84-84-.21-.21-.85-.21-1.27-.21v126.77a219.31,219.31,0,0,1-32.8,6.77c.21-2.11.42-4.23.42-6.13V1568.05c0-4.86,1.27-6.13,6.14-6.13,66.66.21,133.54.21,200.21,0a56.35,56.35,0,0,0,6.14-.43c-1.91,11-3.18,22.22-6.77,32.81H417.45c-.21,0-.42.42-1.48,1.06,5.08,4.86,9.94,9.31,14.81,14.18C454.49,1632.39,478,1655.88,501.26,1679.16Z"/><path class="cls-1" d="M131.73,1702.87a115.5,115.5,0,0,1-21.59-23.7c27.94-27.94,56.09-55.88,84-84,.21-.21.21-.84.21-1.27H67.82c-3.6-10.58-4.87-21.8-6.78-32.8,2.12.21,4.24.42,6.14.42H267.39c4.87,0,6.14,1.27,6.14,6.14-.21,66.67-.21,133.55,0,200.21A53.79,53.79,0,0,0,274,1774c-11-1.9-22.23-3.17-32.81-6.77V1641.28c0-.21-.42-.42-.85-1.06-5.71,5.72-11.42,11.64-17.14,17.36l-67.09,67.51a28.2,28.2,0,0,1-8.25-6.77c1.06-1.27,2.11-2.33,3.17-3.6l87.41-87.41c1.06-1,2.75-1.9,3-3.59v-28.58l-1.48-.84a20.24,20.24,0,0,1-3.17,4.23c-33.44,33.65-67.09,67.09-100.75,100.74C134.7,1700.33,133.21,1701.6,131.73,1702.87Z"/><path class="cls-2" d="M455.54,1334c-25.18,25.18-50.16,50.37-75.34,75.55-3,3-5.93,6.14-8.89,9.32-.63-.85-1.06-1.06-1.06-1.27V1291.65A230.4,230.4,0,0,1,455.54,1334Z"/><path class="cls-2" d="M110.14,1379.69l74.93,74.71c3.17,3.18,6.77,6.35,9.94,9.53-.84.63-1.06,1-1.27,1H67.82A237.2,237.2,0,0,1,110.14,1379.69Z"/><path class="cls-2" d="M67.82,1593.87H194.38c0,.43,0,1.06-.21,1.27l-84,84a231.46,231.46,0,0,1-36.4-66A144.32,144.32,0,0,1,67.82,1593.87Z"/><path class="cls-2" d="M241.15,1291.65v126.56c-.42,0-1.06,0-1.27-.21-27.94-27.94-55.87-56.09-83.81-84a227.62,227.62,0,0,1,63.7-35.56A132.12,132.12,0,0,1,241.15,1291.65Z"/><path class="cls-2" d="M543.59,1465H417c.22-.42,0-1,.22-1.27l84-84a235.73,235.73,0,0,1,40.42,77.89C542.32,1459.9,543,1462.44,543.59,1465Z"/><path class="cls-2" d="M156.07,1724.88l67.09-67.51c5.72-5.72,11.43-11.64,17.14-17.36.64.64.85.85.85,1.06V1767A227.68,227.68,0,0,1,156.07,1724.88Z"/><path class="cls-12" d="M479.67,1356c-1.48,1.27-3,2.54-4.23,3.81L374.7,1460.54c-1.27,1.27-2.33,2.75-3.39,4l-1.27-.63v-28.58c0-1.69,1.69-2.54,3-3.59q43.5-43.5,87-87.2c1.27-1.27,2.33-2.54,3.6-3.81C469.72,1345,475.65,1349.43,479.67,1356Z"/><path class="cls-13" d="M132.37,1355.35c5.29,5.51,10.58,11.22,16.08,16.51l89.1,89.1c1.06,1.06,1.91,2.12,3.6,3.81H211.73c-1.69,0-2.54-1.69-3.59-2.75l-87.2-87c-1.27-1.27-2.54-2.33-3.81-3.6A61.11,61.11,0,0,1,132.37,1355.35Z"/><path class="cls-12" d="M131.73,1702.87c1.48-1.27,3-2.54,4.23-3.81l100.75-100.74c1-1.27,2.11-2.75,3.17-4.23l1.48.84v28.57c0,1.7-1.69,2.54-3,3.6-29.21,29.21-58.2,58.41-87.41,87.41a25.29,25.29,0,0,0-3.17,3.6C141.68,1713.66,136,1709.22,131.73,1702.87Z"/><path class="cls-2" d="M370.25,1767.21V1640.65c.43,0,1.06,0,1.27.21,27.94,27.93,55.88,56.08,84,84a238.61,238.61,0,0,1-72,38.52C379.14,1764.88,374.7,1765.94,370.25,1767.21Z"/><path class="cls-2" d="M501.26,1679.16c-23.49-23.28-46.77-46.56-70.27-69.84-4.86-4.86-9.94-9.52-14.81-14.18,1.06-.84,1.27-1.05,1.48-1.05H543.59A231.43,231.43,0,0,1,501.26,1679.16Z"/><path class="cls-12" d="M479.25,1703.29c-1.91-2.11-3.81-4.23-5.93-6.35l-99.26-99.26c-1.06-1.06-1.9-2.11-3.6-3.81h29.42c1.91,0,2.75,1.91,4,3.18q43.5,43.48,87.2,87a26,26,0,0,0,3.6,3.18C490,1693.35,485.6,1699.27,479.25,1703.29Z"/><path class="cls-2" d="M2968.16,1509.64V1549c-1.69.63-.85,2.11-1.06,3.38a252.54,252.54,0,0,1-14.39,62.22H2491.33l-.63-1.27q-28.57-80.31-2.33-161.69c1.06-3,1.06-6.35,3.81-8.47,1.69,0,3.17.22,4.87.22h450.37c1.69,0,3.17-.22,4.87-.22,1.27.43,1.48,1.49,1.9,2.54a261.1,261.1,0,0,1,11.64,45.93C2966.26,1497.58,2965.83,1503.93,2968.16,1509.64Z"/><path class="cls-1" d="M2951.65,1443c-1.69,0-3.17.21-4.87.21H2496.62c-1.69,0-3.17-.21-4.87-.21,1.27-9.52,6.35-17.77,10.59-26a247.91,247.91,0,0,1,60.95-76.4,238.3,238.3,0,0,1,50.16-32.81,235.39,235.39,0,0,1,78.31-23.06c1.27-.22,2.54-.43,3-1.91h54c.63,1.91,2.33,1.69,4,1.91,3.6.42,7.41.84,11,1.48a247.8,247.8,0,0,1,77.68,27.3,254.6,254.6,0,0,1,71.74,60.1,227.31,227.31,0,0,1,33.23,53.76C2948.48,1432.39,2951,1437.47,2951.65,1443Z"/><path class="cls-3" d="M2952.5,1614.61a236.44,236.44,0,0,1-62,93.55c-38.1,35.77-83.18,57.78-135,64.55-71.74,9.31-136.3-9.1-192.17-55.45a240,240,0,0,1-72-101,6.61,6.61,0,0,1-.42-1.7H2952.5Z"/><path class="cls-3" d="M3345.53,1775H3307c-5.51-2.12-11.43-1.69-17.36-2.75-62.43-10-114.28-38.94-154.07-88-49.53-61.16-65.82-131.21-49.95-208.46,22.43-108.36,120.64-190.27,231.54-193.23,48.25-1.48,93.54,9.31,134.81,34.71q98.73,60.32,117.67,175c.85,5.71.64,11.64,2.76,17.14V1548c-1.06.42-.85,1.48-1.06,2.54a238.93,238.93,0,0,1-45.29,121.69c-40.85,55.66-95.45,89.31-164,100.11C3356.74,1773.35,3351,1773.13,3345.53,1775Zm99-171.85c.22.21.43.63.64.42.42-.42.21-.64,0-1.06-1.91-5.71-3.39-11.64-5.72-17.35-1.69-3.81-.63-5.93,2.54-8.26,5.08-3.38,9.74-7.19,14.82-10.79a61.91,61.91,0,0,0-14-.85c-10.16,0-10.16,0-13.33-9.52l-4.45-13.12a109.36,109.36,0,0,0-6.56,18.2c-.85,3.6-2.54,4.87-6.35,4.65-6.35-.42-12.7,0-19.05,0l-.21,1.48c4,2.76,8,5.72,12.07,8.47,7.4,5.29,7.4,5.08,4.65,13.55-1.48,4.86-3,9.73-4.44,14.39a99.33,99.33,0,0,0,16.51-11.22c2.75-2.12,4.44-1.9,7.19,0A139.33,139.33,0,0,0,3444.57,1603.19Zm-113.44,9.52-.21-.21.21.21c3,6.35,8.26,10.79,12.49,16.08a4.36,4.36,0,0,1,.21,6.14,173.74,173.74,0,0,0-10.58,16.93l-.21.21v.22l.21-.43c5.29-.21,9.74-3,14.39-4.65,8.47-3.18,8.26-3.18,14,3.6l10.16,12.27a95.77,95.77,0,0,0-.85-19c-.42-4,.43-6.35,4.87-7.62,5.92-1.69,11.64-4.44,17.35-6.77a99.12,99.12,0,0,0-19-5.92c-3.39-.64-4.24-2.33-4.24-5.51-.21-6.56-.84-13.12-1.27-21-4.44,6.77-8.25,12.28-11.64,18a4.59,4.59,0,0,1-5.92,2.33c-6.77-1.91-13.12-4.24-19.9-4.87Zm-115.55-178h-1.06a38.36,38.36,0,0,1-1.69,4.44c-5.93,18.2-12.07,36.41-17.78,54.82a4.93,4.93,0,0,1-5.5,4.23h-.22q-28.56-.32-57.14,0a8.34,8.34,0,0,0-5.08.42c.64,1.91,2.54,2.54,3.81,3.39,15.24,11.22,30.48,22.43,45.93,33.23,3.17,2.33,3.81,4.23,2.54,7.83-6.14,18-11.85,36.19-17.78,54.18a7.11,7.11,0,0,0-.85,5.08c1.49-1.06,3-1.91,4.24-2.75,15.66-11.43,31.53-22.65,47-34.29a4.49,4.49,0,0,1,6.56,0h0c15.24,11.22,30.9,22.44,46.35,33.65a8.36,8.36,0,0,0,5.29,2.54c-.63-2.11-1-3.81-1.48-5.29-5.92-18-11.64-36-17.56-53.76a5.17,5.17,0,0,1,2.11-7h0c15.66-11.22,31.11-22.65,46.56-33.86,1.27-.85,3-1.7,3.81-3.81h-62.86c-3.38,0-4.86-.85-5.71-4.24-1.69-5.92-3.6-11.64-5.5-17.35-4.87-13.54-9.53-27.51-14-41.48Zm157-39.58-1.06-.42c-4.24,4.87-8.68,9.73-12.7,15a4.86,4.86,0,0,1-6.56,1.9.21.21,0,0,1-.21-.21c-6.14-2.75-12.28-5.08-18.42-7.62a108,108,0,0,0,9.95,17.35c1.69,2.54,2.12,4.45-.42,7-4.45,4.87-8.68,10.16-13.76,16.29q9.21-1.9,18.41-4.44c5.08-1.9,7.83-.42,10.16,4.23,2.54,5.08,5.93,9.74,9.74,15.88.63-8.26,1.27-15,1.69-21.8a4.08,4.08,0,0,1,3.81-4.45c6.56-1.48,13.33-3.17,21.38-5.29-7.62-3.17-14.19-5.92-20.75-8.46a4,4,0,0,1-3-4.87V1415c.64-6.56,1.06-13.13,1.7-19.9Zm16.08,99.69c7.41,1.05,13.33,2.32,19.26,2.75,5.08.21,6.56,2.75,7.2,7.4.63,5.72,2.11,11.43,3.17,17.15a81.38,81.38,0,0,0,8.89-16.3c1.69-3.81,3.6-5.29,8-4.23,5.72,1.27,11.85,1.69,17.78,2.54l.63-1.06c-4-4-7.83-8.25-12.27-11.85-4-3.18-4.45-6.14-1.91-10.58,3-4.87,5.08-10.38,7.62-15.45a85.4,85.4,0,0,0-16.08,7.4c-4,2.54-6.77,2.54-10.16-1.27-3.81-4.44-8.47-8.25-12.7-12.48a104.43,104.43,0,0,0,2.54,19.89c.85,3.39-.21,4.87-3.17,6.35-6.14,2.75-11.86,5.93-18.84,9.74Z"/><path class="cls-14" d="M3215.58,1434.72c4.44,14,9.1,27.94,13.75,41.9,1.91,5.72,4,11.43,5.51,17.36.84,3.17,2.33,4.23,5.71,4.23,19-.21,38.1,0,57.15,0h5.71c-.85,2.12-2.54,2.75-3.81,3.81-15.45,11.43-31.11,22.65-46.56,33.86a5.26,5.26,0,0,0-2.33,7h0c5.93,18,11.85,35.77,17.57,53.75.42,1.7,1.06,3.39,1.48,5.3a9,9,0,0,1-5.29-2.54l-46.35-33.65a4.47,4.47,0,0,0-6.56,0h0l-47,34.28c-1.27.85-2.54,1.69-4.23,2.75a7.11,7.11,0,0,1,.85-5.08c5.92-18.2,11.64-36.19,17.77-54.18,1.27-3.59.85-5.71-2.54-7.83-15.44-11-30.68-22.22-45.92-33.23-1.27-1-3.18-1.48-3.81-3.38a8.32,8.32,0,0,1,5.08-.42h57.14a5,5,0,0,0,5.72-4v-.21c5.71-18.2,11.85-36.61,17.77-54.81a38.59,38.59,0,0,1,1.7-4.45Z"/><path class="cls-14" d="M3372.62,1395.14c-.43,6.77-.85,13.34-1.7,20.11a4.16,4.16,0,0,0,2.75,5.08h.22c6.56,2.54,12.91,5.29,20.74,8.46-8.05,1.91-14.61,3.6-21.38,5.29a4.08,4.08,0,0,0-3.81,4.45c-.42,6.77-1.06,13.54-1.69,21.8-3.81-6.14-7.2-10.8-9.74-15.88-2.33-4.65-4.86-5.92-10.16-4.23a144.47,144.47,0,0,1-18.41,4.45c5.08-6.14,9.31-11.43,13.76-16.3,2.33-2.54,2.11-4.44.42-7a142.51,142.51,0,0,1-9.95-17.36c6.14,2.54,12.28,4.87,18.42,7.62a5,5,0,0,0,6.77-1.27l.21-.21c4-5.08,8.47-10,12.7-15Z"/><path class="cls-14" d="M3333.25,1652.07a175,175,0,0,1,10.58-16.93,4.35,4.35,0,0,0-.21-6.13c-4.23-5.51-9.52-10-12.27-16.3h0c6.77.63,13.12,3.17,19.47,4.87a4.41,4.41,0,0,0,5.92-2.33c3.6-5.71,7.2-11.22,11.64-18,.43,7.83,1.06,14.39,1.27,21,0,3.18,1.06,4.87,4.24,5.51a116.47,116.47,0,0,1,19,5.92c-5.71,2.33-11.43,4.87-17.35,6.77-4.23,1.27-5.29,3.6-4.87,7.62a114.66,114.66,0,0,1,.85,19l-10.16-12.27c-5.5-6.78-5.5-6.78-14-3.6-4.66,1.69-9.1,4.44-14.39,4.65Z"/><path class="cls-14" d="M3388.7,1494.83c7.2-3.81,12.91-7,18.84-9.74,3-1.48,4-2.75,3.17-6.35a106.62,106.62,0,0,1-2.54-19.89c4.23,4.23,8.89,8,12.7,12.48,3.39,3.81,6.14,3.81,10.16,1.27a69,69,0,0,1,16.08-7.4c-2.54,5.29-4.65,10.58-7.62,15.45-2.54,4.44-2.11,7.19,1.91,10.37,4.44,3.59,8.25,7.83,12.27,11.85l-.63,1.06c-5.93-.85-11.85-1.27-17.78-2.54-4.44-1.06-6.35.42-8,4.23a109.85,109.85,0,0,1-8.89,16.3c-1.06-5.72-2.33-11.43-3.18-17.15-.42-4.65-1.9-7-7.19-7.4C3402,1497.15,3395.9,1495.88,3388.7,1494.83Z"/><path class="cls-14" d="M3444.57,1603.19a132.14,132.14,0,0,1-15.87-10.8c-2.54-1.9-4.44-2.11-7.19,0a99.33,99.33,0,0,1-16.51,11.22c1.48-4.87,3-9.74,4.44-14.39,2.54-8.26,2.54-8.26-4.65-13.55-4-2.75-8.05-5.71-12.07-8.46l.21-1.48c6.35,0,12.7-.22,19.05,0,3.81.21,5.29-1.27,6.35-4.66a116.6,116.6,0,0,1,6.56-18.2l4.45,13.12c3.17,9.52,3.17,9.52,13.33,9.52a78,78,0,0,1,14,.85c-4.87,3.6-9.74,7.41-14.82,10.79-3.38,2.12-4.23,4.24-2.54,8.26,2.33,5.71,3.81,11.43,5.72,17.35Z"/><path class="cls-14" d="M3445,1602.55c.42.42.63.64,0,1.06,0,0-.43-.42-.64-.42Z"/><polygon class="cls-14" points="3331.35 1612.5 3330.92 1612.5 3331.13 1612.71 3331.35 1612.5"/><path class="cls-14" d="M3333,1651.86l-.21.43v-.22a.21.21,0,0,0,.21-.21Z"/></g></g></svg>